<?xml version="1.0" encoding="utf-8" ?>
<svg baseProfile="full" height="300mm" version="1.1" viewBox="0,0,200,300" width="200mm" xmlns="http://www.w3.org/2000/svg" xmlns:ev="http://www.w3.org/2001/xml-events" xmlns:xlink="http://www.w3.org/1999/xlink"><defs /><rect fill="#222222" height="300" width="200" x="0" y="0" /><text fill="#FFFFFF" style="font-size:12px; font-family:Arial; font-weight:bold;" x="10" y="20">Over 1km Workouts</text><text fill="#FFFFFF" style="font-size:4px; font-family:Arial" x="10" y="280">ATHLETE</text><text fill="#FFFFFF" style="font-size:9px; font-family:Arial" x="10" y="290">Bytelv</text><text fill="#FFFFFF" style="font-size:4px; font-family:Arial" x="120" y="280">STATISTICS</text><text fill="#FFFFFF" style="font-size:3px; font-family:Arial" x="120" y="285">Number: 2</text><text fill="#FFFFFF" style="font-size:3px; font-family:Arial" x="120" y="290">Weekly: 2.0</text><text fill="#FFFFFF" style="font-size:3px; font-family:Arial" x="141" y="285">Total: 8.2 km</text><text fill="#FFFFFF" style="font-size:3px; font-family:Arial" x="141" y="290">Avg: 4.1 km</text><text fill="#FFFFFF" style="font-size:3px; font-family:Arial" x="167" y="285">Min: 3.4 km</text><text fill="#FFFFFF" style="font-size:3px; font-family:Arial" x="167" y="290">Max: 4.8 km</text><polyline fill="none" points="119.75422092108056,120.19233690400142 119.75422092108056,122.26258292596322 119.33053789846599,124.67786647309549 118.69501336477697,125.71298684645444 117.52988505316898,130.31351351551712 117.10620203055441,130.77356543496717 117.31804354209453,131.4636430592509 118.48317185370252,132.49875892233104 121.0252699884586,135.14405189128593 122.29631905537099,136.06415274040774 126.21538701280951,140.43462434993125 127.69827759172767,142.3898313624086 127.91011910280213,142.9648917808663 127.16867381334305,144.0 126.74499079119414,143.65496400324628 127.16867381334305,143.19491588929668 127.48643608065322,141.81477073091082 126.00354550173506,138.1343776632566 122.6140813222155,135.14405189128593 121.55487376637757,134.45397589774802 119.43645865423605,132.7287845760584 118.90685487631708,132.15372037771158 118.37725109839812,130.77356543496717 118.37725109839812,129.85346146009397 118.90685487631708,129.39340926893055 122.6140813222155,128.12826504232362 122.5081605669111,127.78322552936152 119.33053789846599,128.93335694179405 118.69501336477697,128.93335694179405 118.58909260900691,128.24327819619793 119.43645865423605,126.97813303524163 120.81342847691849,124.21781275281683 121.23711149953306,121.80252849229146 120.38974545476958,118.58214365097228 120.49566621007398,118.00707422860432 120.17790394369513,117.66203247301746 120.38974545476958,116.2818646869855 121.97855678899214,113.40651120396797 125.89762474643067,100.17981679853983 127.38051532488316,95.80923221295234 128.7574851475656,89.71339638310019 126.74499079119414,80.97215618914925 126.21538701280951,80.5120895561995 125.4739417238161,80.28205618902575 124.73249643435702,80.39707287691999 121.23711149953306,78.67182166618295 121.87263603322208,78.67182166618295 121.76671527745202,78.09673750435468 122.72000207798555,76.716534649604 123.03776434483007,75.68138170591556 122.93184358952567,74.30117670970503 122.08447754429653,71.19571099604946 121.55487376637757,67.97522149130236 121.44895301060751,63.94960024266038 121.55487376637757,60.95913200592622 121.44895301060751,58.31371300853789 120.91934923268855,54.97817830112763 120.38974545476958,49.802334434585646 120.38974545476958,48.192068388685584 119.96606243215501,46.81183902430348 119.43645865423605,46.581800677697174 118.05948883108795,46.581800677697174 117.00028127525002,46.23674309439957 116.6825190084055,45.54662769846618 116.57659825310111,44.16639598843176 117.00028127525002,41.29090932931285 116.89436051947996,38.530437139910646 116.47067749733105,37.15019920992199 115.94107371894643,36.46007978578564 114.56410389626399,36.0 113.08121331781149,36.0 112.02200576104224,36.230039909482 110.96279820566997,36.11501995893195 109.69174913829193,36.34505985188298 103.97202833555639,36.230039909482 103.12466229079291,36.46007978578564 102.17137548979372,37.49525880685542 102.17137548979372,38.30039757001214 103.12466229079291,39.10553591628559 103.97202833555639,39.33557536744047 109.26806611567736,39.45059508027043 109.79766989406198,40.02569351659622 110.00951140513644,41.29090932931285 109.90359064936638,43.016201962018386 110.75095669412985,45.54662769846618 110.85687744989991,46.581800677697174 111.59832273935899,47.15689648024272 112.86937180673704,48.65214457199909 113.5048963399604,48.99720162001904 115.09370767418295,49.11222061899025 116.04699447471648,49.457277564913966 116.89436051947996,50.49244794435799 117.63580580893904,51.757655250956304 117.7417265647091,52.332749141263776 117.63580580893904,54.17304816306569 118.165409586858,56.01334500941448 118.69501336477697,57.50858459551819 118.69501336477697,58.08367636182811 118.165409586858,59.11884100572206 118.05948883108795,60.26902313577011 118.80093412054703,62.454366842401214 118.58909260900691,63.83458233997226 118.90685487631708,64.52468962990679 118.90685487631708,65.09977880422957 117.95356807578355,66.94006273569539 117.7417265647091,67.86020388570614 118.27133034262806,70.50560666271485 119.75422092108056,73.3810393664753 119.86014167685062,74.07114242494572 119.6483001653105,75.22131350962445 119.01277563162148,76.37148374482058 118.69501336477697,76.8315516008297 118.05948883108795,76.94656854355708 116.47067749733105,77.06158547778614 115.62331145210192,76.8315516008297 114.67002465203404,76.02643276343588 112.65753029519692,75.45134762453381 112.33976802835241,75.10629643918946 110.64503593882546,70.73564147471916 108.95030384883285,67.4001333785709 108.63254158198833,65.78988553350791 107.78517553722486,63.144474743981846 107.04373024823144,61.8792766907718 106.51412647031248,61.7642586347647 105.98452269192785,61.8792766907718 103.76018682448193,63.48952858010307 102.8069000239484,63.25949269789271 98.25230753235519,65.55984999111388 95.07468486437574,66.94006273569539 94.65100184176117,67.17009807401337 94.54508108599111,68.09023908816744 94.86284335283563,69.81550202379003 94.86284335283563,72.92097049055155 94.33323957491666,73.84110810607672 94.96876410860568,75.45134762453381 95.2865263754502,76.02643276343588 96.23981317598373,76.60151768976357 95.81613015336916,76.60151768976357 95.07468486437574,76.94656854355708 94.33323957491666,77.52165313030127 94.22731881961226,78.09673750435468 95.18060561968014,79.82198935246561 95.18060561968014,80.74212288984563 94.54508108599111,81.43222268589307 95.92205090960488,83.50252023921348 96.23981317598373,84.76770072197542 95.71020939806476,85.34278242022265 93.59179428592324,86.14789644035045 93.69771504122764,86.49294517887756 92.00298295170069,87.75812323193531 91.26153766224161,87.75812323193531 90.62601312855259,87.2980586043559 89.99048859532923,85.57281503989361 89.56680557271466,85.34278242022265 88.71943952795118,85.45779873419087 87.5543112163432,86.26291269483045 86.70694517111406,87.2980586043559 85.0122130815871,88.56323600339238 83.2115602362901,89.71339638310019 82.57603570260108,89.71339638310019 81.834590413142,89.36834835831542 80.98722436837852,89.71339638310019 80.24577907891944,89.71339638310019 77.27999792201445,91.32361948757898 76.22079036617652,91.43863535998389 75.47934507671744,91.89869876450393 73.99645449779928,93.8539667163277 73.25500920927152,94.42904505843762 73.99645449779928,95.57920110563282 72.19580165250227,96.72935630311258 71.66619787504897,97.30443358339835 71.2425148524344,98.9146488381084 71.3484356077388,99.94978633662686" stroke="#4DD2FF" stroke-linecap="round" stroke-linejoin="round" stroke-width="0.5"><title>2023-01-03 3.4km</title></polyline><polyline fill="none" points="70.3421884290874,221.21495345642325 70.87179220747203,221.21495345642325 71.2954752300866,221.09993830602616 72.88428656430915,220.17981679853983 74.79086016491055,217.9945260391105 76.80335452174768,217.53446443588473 79.13361114496365,216.38430983293802 81.7816300354898,215.46418553893454 83.37044136924669,214.6590763357235 84.95925270346925,214.19901374715846 88.4546376382932,211.66866707906593 88.87832066090778,211.66866707906593 89.19608292775229,212.01371459418442 89.83160746144131,213.3939038895769 90.67897350620478,214.88910757913254 90.78489426197484,215.57920110563282 91.10265652928501,215.57920110563282 89.72568670567125,212.24374622863252 89.40792443882674,211.89869876450393 89.40792443882674,211.4386353599839 90.46713199559599,210.63352407538332 92.267784840893,210.0584443315165 92.90330937458202,210.0584443315165 93.53883390780538,210.2884762545582 93.96251692995429,210.1734602971701 94.1743584414944,209.9434283573646 93.8565961746499,210.0584443315165 93.96251692995429,209.7133963831002 94.38619995303452,209.02330025739502 96.39869430894032,208.21818772365805 96.92829808685929,207.52809093531687 98.62303017731756,207.18304242624436 99.68223773268983,206.26291269483045 100.21184151060879,205.45779873419087 100.74144528899342,205.34278242022265 105.19011702481657,203.15747083793394 108.26181893749163,202.81242136051878 113.76969822915271,201.43222268589307 114.72298502968624,201.43222268589307 117.05324165290222,201.8922890466638 121.1841511214152,202.237338728155 122.56112094409764,201.8922890466638 123.09072472248226,202.00730561558157 123.83217001194134,201.8922890466638 124.1499322783202,201.08717282605357 124.99729832308367,200.74212288984563 129.44597005890682,201.08717282605357 130.50517761474475,200.97215618914925 132.09398894943297,200.39707287692 132.41175121627748,200.62710622732993 132.19990970473737,200.74212288984563 131.45846441574395,200.39707287692 128.17492099199444,200.5120895561995 125.10321907885373,200.0520227876259 124.1499322783202,200.28205618902575 122.87888321140781,200.1670394927496 122.45520018879324,200.28205618902575 120.01902280980721,199.93700607435312 119.91310205403715,200.28205618902575 119.91310205403715,200.62710622732993 120.23086432088166,200.5120895561995 120.97230961034074,200.74212288984563 122.24335867771879,200.5120895561995 123.30256623355672,200.85713954351377 123.62032850040123,201.20218945445959 124.57361530140042,204.42265160172246 124.57361530140042,205.5728150398936 124.78545681200922,206.49294517887756 125.10321907885373,206.72297762858216 124.99729832308367,207.41307477396913 124.99729832308367,209.13831629941706 124.36177378939465,211.55365122389048 123.93809076724574,212.47377782850526 123.51440774463117,214.42904505843762 123.19664547778666,215.1191387885483 122.9848039667122,216.38430983293802 121.50191338825971,219.60474058042746 120.97230961034074,222.02005926996935 120.33678507665172,223.97531451296527 119.38349827611819,226.04558209422976 116.31179636344314,235.70679441525135 116.09995485236868,237.20197668042965 116.31179636344314,239.96230939845555 115.78219258552417,244.21781275281683 115.46443031867966,245.25293343223166 114.93482654029503,246.17304012493696 114.29930200707167,249.04837003618013 113.8756189844571,250.31351351551712 113.45193596184254,250.77356543496717 113.34601520653814,251.11860428529326 115.3585095629096,252.84379739046562 116.7354793860577,254.68400126311462 119.2775775208138,256.5242029608926 122.24335867771879,259.97457528417 122.9848039667122,260.54963659495115 122.87888321140781,260.8946732794866 124.0440115230158,262.3898313624086 124.25585303409025,262.8498797141947 123.83217001194134,263.6549640032463 123.51440774463117,264.0 123.09072472248226,263.8849880093476 123.30256623355672,263.4249399632681 123.72624925617129,262.9648917808663 123.83217001194134,261.8147707309108 123.51440774463117,261.0096854905132 122.9848039667122,258.93946439004503 122.34927943302318,258.1343776632566 118.95981525350362,255.14405189128593 117.47692467551678,254.22395049862098 115.46443031867966,252.38374608266167 115.04074729606509,251.57865596702322 114.61706427391618,250.4285265081562 114.72298502968624,249.85346146009397 115.2525888076052,249.39340926893055 117.05324165290222,248.93335694179405 117.68876618659124,248.47330447868444 119.06573600927368,248.12826504232362 118.85389449819922,247.78322552936152 115.3585095629096,248.93335694179405 115.04074729606509,248.93335694179405 114.93482654029503,248.47330447868444 117.05324165290222,244.5628530557733 117.58284543082118,241.91754211334046 116.8414001413621,238.9271852024831 116.8414001413621,238.00707422860432 116.52363787498325,237.432004593662 116.7354793860577,236.2818646869855 116.8414001413621,235.8218084864784 117.58284543082118,235.01670980860945 119.7012605429627,229.95608001609799 119.59533978719264,229.38100740825757 120.12494356557727,227.77080297633074 120.54862658772618,225.0104486477794 123.93809076724574,215.3491699642036 125.10321907885373,209.36834835831542 123.51440774463117,203.15747083793394 123.19664547778666,201.31720607425086 122.87888321140781,200.62710622732993 121.81967565510422,200.28205618902575 120.12494356557727,200.62710622732993 117.90060769766569,200.85713954351377 117.26508316397667,200.39707287692 117.05324165290222,199.93700607435312 117.26508316397667,198.67182166618295 118.2183699645102,198.67182166618295 118.11244920874014,197.86670378036797 118.85389449819922,196.94656854355708 119.2775775208138,196.25646675925236 119.38349827611819,194.99127936072182 118.43021147558466,191.19571099604946 117.90060769766569,187.97522149130236 117.79468694189563,183.6045465086354 118.00652845343575,181.7642586347647 117.79468694189563,178.3137130085379 117.26508316397667,174.97817830112763 116.7354793860577,167.962030246621 116.20587560813874,166.69681985548232 115.78219258552417,166.58180067769717 113.98153974022716,166.46678149187937 113.34601520653814,166.23674309439957 113.13417369499803,165.89168543484993 112.92233218438923,164.16639598843176 113.34601520653814,161.29090932931285 113.24009445076808,158.07035796553828 112.81641142861918,157.150199209922 112.28680765023455,156.46007978578564 111.43944160547107,156.11501995893195 109.74470951594412,156.0 108.68550195964053,156.0 108.26181893749163,156.34505985188298 107.30853213695809,156.11501995893195 106.03748306958005,156.34505985188298 100.31776226684451,156.230039909482 99.04671319946647,156.69011962763034 98.51710942108184,157.49525880685542 98.41118866531178,157.84031832765322 98.51710942108184,158.30039757001214 98.83487168839201,158.64545691211242 100.31776226684451,159.33557536744047 105.29603778012097,159.33557536744047 105.93156231380999,159.68063448008616 106.35524533642456,160.370752476505 106.2493245806545,163.01620196201839 107.09669062541798,165.54662769846618 107.20261138118804,166.58180067769717 108.26181893749163,167.38693474140018 108.89734347071499,168.30708744749427 109.53286800440401,168.88218261231668 111.96904538339004,169.22723960934673 112.498649161309,169.57229653000832 113.98153974022716,171.7576552509563 114.08746049599722,172.33274914126378 113.98153974022716,173.71297361166216 114.08746049599722,174.28806677949615 114.40522276237607,175.6682895165868 115.04074729606509,177.3935662168078 115.04074729606509,178.0836763618281 114.40522276237607,179.3488774993457 114.40522276237607,180.03898677765392 114.51114351814613,180.95913200592622 115.14666805183515,182.33934882900212 114.93482654029503,183.48952858010307 115.2525888076052,184.98476098640822 115.04074729606509,185.6748677667929 114.29930200707167,186.82504505384713 114.08746049599722,188.20525667676702 114.51114351814613,190.16055438155308 116.09995485236868,193.3810393664753 116.20587560813874,194.41619383951183 115.3585095629096,196.37148374482058 114.61706427391618,196.94656854355708 112.39272840600461,196.94656854355708 110.697996316012,195.91141575272195 109.42694724909961,195.68138170591556 108.79142271541059,195.22131350962445 107.83813591487706,193.26602216006722 106.67300760326907,189.93051948503125 105.50787929166108,187.7451862716116 104.97827551327646,185.44483220716938 104.02498871320859,182.79942083149217 103.60130569012836,182.1093127768254 103.07170191267505,181.7642586347647 102.22433586791158,181.99429473793134 100.10592075577006,183.48952858010307 99.68223773268983,183.48952858010307 99.15263395523652,183.2594926978927 98.83487168839201,183.3745106435381 97.1401395983994,184.5246896299068 91.3144980398938,186.9400627356954 90.89081501727924,187.63016864925157 91.20857728412375,190.16055438155308 91.10265652928501,192.11584963090718 91.3144980398938,192.34588420484215 91.20857728412375,193.03598772233818 90.67897350620478,193.61107375321444 90.67897350620478,193.95612526952755 91.63226030673832,196.02643276343588 92.267784840893,196.60151768976357 92.69146786304191,196.48650072154123 91.42041879566386,196.94656854355708 90.67897350620478,197.52165313030127 90.57305275090039,197.98172064661048 91.63226030673832,200.0520227876259 91.52633955096826,200.74212288984563 90.9967357730493,201.20218945445959 90.89081501727924,201.43222268589307 92.16186408465728,203.15747083793394 92.58554710727185,204.65268435701728 92.47962635150179,204.9977334268624 91.73818106250837,205.45779873419087 90.25529048359022,205.91786390554626 89.83160746144131,206.14789644035045 90.04344897251576,206.49294517887756 88.9842414171435,207.2980586043559 87.92503386037424,207.87313936767168 86.97174705984071,207.52809093531687 86.97174705984071,206.95301004429348 86.33622252661735,205.5728150398936 85.91253950400278,205.34278242022265 85.1710942145437,205.45779873419087 84.00596590293571,206.14789644035045 83.05267910240218,207.2980586043559 81.35794701287523,208.56323600339238 79.23953190073371,209.82841237448156 78.28624510020018,209.36834835831542 77.65072056651115,209.7133963831002 76.59151301020756,209.7133963831002 73.62573185330257,211.32361948757898 72.24876203062013,211.55365122389048 70.97771296277642,212.81882516504265 70.3421884290874,213.8539667163277 69.60074314055964,214.19901374715846 70.3421884290874,215.57920110563282 70.3421884290874,215.3491699642036 69.8125846516341,216.039263286395 68.64745634002611,216.49932533164974 68.01193180633709,217.30443358339835 67.58824878372252,219.02966414950788 67.69416953902692,220.5248624276137" stroke="#4DD2FF" stroke-linecap="round" stroke-linejoin="round" stroke-width="0.5"><title>2023-01-03 4.8km</title></polyline></svg>