<?xml version="1.0" encoding="utf-8" ?>
<svg baseProfile="full" height="300mm" version="1.1" viewBox="0,0,200,300" width="200mm" xmlns="http://www.w3.org/2000/svg" xmlns:ev="http://www.w3.org/2001/xml-events" xmlns:xlink="http://www.w3.org/1999/xlink"><defs /><rect fill="#222222" height="300" width="200" x="0" y="0" /><text fill="#FFFFFF" style="font-size:12px; font-family:Arial; font-weight:bold;" x="10" y="20">Over 5km Workouts</text><text fill="#FFFFFF" style="font-size:4px; font-family:Arial" x="10" y="280">ATHLETE</text><text fill="#FFFFFF" style="font-size:9px; font-family:Arial" x="10" y="290">Bytelv</text><text fill="#FFFFFF" style="font-size:4px; font-family:Arial" x="120" y="280">STATISTICS</text><text fill="#FFFFFF" style="font-size:3px; font-family:Arial" x="120" y="285">Number: 1</text><text fill="#FFFFFF" style="font-size:3px; font-family:Arial" x="120" y="290">Weekly: 1.0</text><text fill="#FFFFFF" style="font-size:3px; font-family:Arial" x="141" y="285">Total: 8.6 km</text><text fill="#FFFFFF" style="font-size:3px; font-family:Arial" x="141" y="290">Avg: 8.6 km</text><text fill="#FFFFFF" style="font-size:3px; font-family:Arial" x="167" y="285">Min: 8.6 km</text><text fill="#FFFFFF" style="font-size:3px; font-family:Arial" x="167" y="290">Max: 8.6 km</text><polyline fill="none" points="57.41400652588345,69.0 59.54403566149995,72.10620989956078 59.894177437294275,72.70843165917904 60.82788883941248,73.91287263651611 63.19134582544211,77.68465272116009 64.53355596587062,79.64976867291261 65.37973192392383,80.94927587962593 66.48851421382278,82.31216944361222 66.8386559895007,83.00946214748546 67.27633320912719,83.48488833982265 69.14375601301435,86.05218065524241 70.16500285884831,87.31997365111602 71.94489021901973,89.76046459906502 72.87860162102152,90.90146858157823 74.60013201832771,92.54958007714595 77.40126622410025,95.4654541053169 78.68511940201279,96.47966650404851 79.9397940983763,97.55726454546675 82.04064475279301,98.95179916164489 88.255661272211,103.51569887952064 99.54773353971541,112.00949385599233 100.24801709130406,112.5165807645244 102.29051078297198,114.22799464818672 104.33300447475631,115.78093836500193 105.64603613386862,116.85848783908295 106.37549816665705,117.3655690063897 106.98824627418071,117.87264957345906 108.44717033975758,118.88680890650721 109.7310235175537,119.96435056670452 110.4896640315419,120.43973573140102 111.16076910169795,120.94681265891995 113.69929697585758,123.10188290363294 117.17153625178616,126.49292736421921 120.29363375226967,130.23255274578696 121.75255781773012,132.22911903075874 122.65709073841572,133.65523210863466 124.29108569188975,136.5074440218159 124.64122746756766,137.29972173878923 125.07890468731057,138.09199799061753 125.37068950047251,138.85258181393147 126.10015153326094,140.34205455650226 127.00468445383012,142.65548067653435 127.79250344925094,145.00058481589076 127.96757433714811,145.85622772475472 128.66785788862035,148.29638515383704 129.3097844774602,151.71892021087115 129.54321232798975,153.3984876004106 129.8349971411517,156.694223344879 130.03924651024863,167.2150563079049 130.2143173981458,171.11276921792887 130.2726743608946,175.5174590316892 130.71035158040468,190.88598627859028 130.76870854303706,191.3929798513709 130.79788702423684,195.8608347895497 130.94377943093423,199.98009241640102 131.4398136131931,204.130996607797 132.25681109004654,208.9472625599592 132.8112022348214,212.5911120387027 132.86955919745378,212.9713380264002 132.7820237535052,213.66841812815983 132.46106045914348,214.33381171376095 131.9942047582008,214.77740686395555 131.5273490572581,215.12594558866112 130.71035158040468,215.4111134253617 130.1267819540808,215.4111134253617 129.54321232798975,214.9041482510802 129.04717814573087,214.175384763279 128.463608519407,213.19313636352308 128.08428826241288,212.87628156103892 128.05510978098027,212.65448306006147 127.90921737451572,212.4326844443567 126.91714900988154,211.67223117660615 126.50865027157124,211.2603184269392 126.18768697720952,210.72166269560694 125.89590216393117,210.1196349011152 125.60411735100206,209.16906297850073 125.63329583220184,208.50366137883975 125.77918823889922,207.86994460964343 126.2752224211581,207.1728550819098 126.53782875288744,206.95105363088078 126.59618571551982,206.85599583102157 126.94632749131415,206.6975661177421 127.15057686041109,206.72925206506625 127.85086041199975,206.6025082617125 128.69703636993654,206.6025082617125 129.04717814573087,206.50745038455352 129.3681414400926,206.2856485893135 129.86417562235147,205.81035864181467 130.41856676735915,204.70134671538835 130.91460094961803,204.1626827447908 131.1188503188314,204.09931046847487 131.67324146372266,203.7507627812447 132.51941742177587,203.62401809747098 132.69448830955662,203.90919358329847 132.840380716254,204.00425203642226 132.89873767876998,204.1943688794854 133.01545160415117,204.4161717564566 133.1321655291831,204.89146324936883 133.2197009731317,205.49349838410853 133.33641489851288,205.7786726265913 133.89080604340415,206.98273955946206 134.27012630051468,207.52139998742496 134.9412313705543,208.18680311131175 135.4372655529296,208.59871881332947 136.51686936139595,209.29580602323404 137.85907950182445,209.897834974312 138.15086431486998,210.15132059558528 138.70525545976125,210.78503399324836 139.17211116082035,211.64054559453507 139.3471820486011,212.14751462702407 139.46389597386587,213.25650729582412 139.3763605299173,214.33381171376095 138.9970402729232,214.77740686395555 138.76361242239363,215.2526868728164 137.5964731699787,218.04098564846208 137.33386683824938,218.80142762279138 137.36304531944916,218.95985286441282 137.33386683824938,219.05490798133542 137.2171529128682,219.02322294469923 137.39222380076535,219.94208805612288 137.85907950182445,221.05106056889053 138.0633288709214,221.36790933157317 138.20922127738595,221.7798123729881 138.967861791607,223.3640511536214 139.63896686176304,224.59975334021146 139.8140377496602,225.0116532779357 140.2808934506029,226.40577320870943 140.86446307681035,227.73651982462616 141.30214029655326,228.59199761174386 142.23585169855505,230.2078954433091 142.58599347423296,231.0" stroke="#4DD2FF" stroke-linecap="round" stroke-linejoin="round" stroke-width="0.5"><title>2023-01-08 8.6km</title></polyline></svg>